<svg width="500" height="500" viewBox="0 0 500 500" fill="none" xmlns="http://www.w3.org/2000/svg">
<path d="M136.39 368.83C136.39 362.303 137.343 356.547 139.25 351.56C141.23 346.573 143.87 342.43 147.17 339.13C150.543 335.757 154.43 333.227 158.83 331.54C163.303 329.853 168.033 329.01 173.02 329.01C177.933 329.01 182.553 329.853 186.88 331.54C191.28 333.227 195.13 335.757 198.43 339.13C201.73 342.43 204.333 346.573 206.24 351.56C208.22 356.547 209.21 362.303 209.21 368.83C209.21 375.357 208.22 381.113 206.24 386.1C204.333 391.087 201.73 395.267 198.43 398.64C195.13 401.94 191.28 404.433 186.88 406.12C182.553 407.807 177.933 408.65 173.02 408.65C168.033 408.65 163.303 407.807 158.83 406.12C154.43 404.433 150.543 401.94 147.17 398.64C143.87 395.267 141.23 391.087 139.25 386.1C137.343 381.113 136.39 375.357 136.39 368.83ZM147.61 368.83C147.61 373.45 148.196 377.667 149.37 381.48C150.543 385.22 152.193 388.41 154.32 391.05C156.52 393.69 159.16 395.743 162.24 397.21C165.393 398.603 168.913 399.3 172.8 399.3C176.686 399.3 180.17 398.603 183.25 397.21C186.33 395.743 188.933 393.69 191.06 391.05C193.26 388.41 194.946 385.22 196.12 381.48C197.293 377.667 197.88 373.45 197.88 368.83C197.88 364.21 197.293 360.03 196.12 356.29C194.946 352.477 193.26 349.25 191.06 346.61C188.933 343.97 186.33 341.953 183.25 340.56C180.17 339.093 176.686 338.36 172.8 338.36C168.913 338.36 165.393 339.093 162.24 340.56C159.16 341.953 156.52 343.97 154.32 346.61C152.193 349.25 150.543 352.477 149.37 356.29C148.196 360.03 147.61 364.21 147.61 368.83ZM259.295 396.44C258.562 394.68 257.572 392.443 256.325 389.73C255.152 387.017 253.868 384.083 252.475 380.93C251.082 377.777 249.578 374.55 247.965 371.25C246.425 367.877 244.958 364.723 243.565 361.79C242.172 358.783 240.852 356.107 239.605 353.76C238.432 351.413 237.478 349.617 236.745 348.37C235.938 357.023 235.278 366.41 234.765 376.53C234.252 386.577 233.812 396.733 233.445 407H222.995C223.288 400.4 223.618 393.763 223.985 387.09C224.352 380.343 224.755 373.743 225.195 367.29C225.708 360.763 226.222 354.42 226.735 348.26C227.322 342.1 227.945 336.27 228.605 330.77H237.955C239.935 333.997 242.062 337.81 244.335 342.21C246.608 346.61 248.882 351.23 251.155 356.07C253.428 360.837 255.628 365.64 257.755 370.48C259.882 375.247 261.825 379.61 263.585 383.57C265.345 379.61 267.288 375.247 269.415 370.48C271.542 365.64 273.742 360.837 276.015 356.07C278.288 351.23 280.562 346.61 282.835 342.21C285.108 337.81 287.235 333.997 289.215 330.77H298.565C301.058 355.337 302.928 380.747 304.175 407H293.725C293.358 396.733 292.918 386.577 292.405 376.53C291.892 366.41 291.232 357.023 290.425 348.37C289.692 349.617 288.702 351.413 287.455 353.76C286.282 356.107 284.998 358.783 283.605 361.79C282.212 364.723 280.708 367.877 279.095 371.25C277.555 374.55 276.088 377.777 274.695 380.93C273.302 384.083 271.982 387.017 270.735 389.73C269.562 392.443 268.608 394.68 267.875 396.44H259.295ZM338.615 399.41C349.762 399.41 355.335 395.597 355.335 387.97C355.335 385.623 354.822 383.643 353.795 382.03C352.842 380.343 351.522 378.913 349.835 377.74C348.149 376.493 346.205 375.43 344.005 374.55C341.879 373.67 339.605 372.79 337.185 371.91C334.399 370.957 331.759 369.893 329.265 368.72C326.772 367.473 324.609 366.043 322.775 364.43C320.942 362.743 319.475 360.763 318.375 358.49C317.349 356.217 316.835 353.467 316.835 350.24C316.835 343.567 319.109 338.36 323.655 334.62C328.202 330.88 334.472 329.01 342.465 329.01C347.085 329.01 351.265 329.523 355.005 330.55C358.819 331.503 361.605 332.567 363.365 333.74L359.955 342.43C358.415 341.477 356.105 340.56 353.025 339.68C350.019 338.727 346.499 338.25 342.465 338.25C340.412 338.25 338.505 338.47 336.745 338.91C334.985 339.35 333.445 340.01 332.125 340.89C330.805 341.77 329.742 342.907 328.935 344.3C328.202 345.62 327.835 347.197 327.835 349.03C327.835 351.083 328.239 352.807 329.045 354.2C329.852 355.593 330.989 356.84 332.455 357.94C333.922 358.967 335.609 359.92 337.515 360.8C339.495 361.68 341.659 362.56 344.005 363.44C347.305 364.76 350.312 366.08 353.025 367.4C355.812 368.72 358.195 370.297 360.175 372.13C362.229 373.963 363.805 376.163 364.905 378.73C366.005 381.223 366.555 384.267 366.555 387.86C366.555 394.533 364.099 399.667 359.185 403.26C354.345 406.853 347.489 408.65 338.615 408.65C335.609 408.65 332.822 408.43 330.255 407.99C327.762 407.623 325.525 407.183 323.545 406.67C321.565 406.083 319.842 405.497 318.375 404.91C316.982 404.25 315.882 403.7 315.075 403.26L318.265 394.46C319.952 395.413 322.519 396.477 325.965 397.65C329.412 398.823 333.629 399.41 338.615 399.41Z" fill="white"/>
<path d="M182.52 172.824C191.5 165.034 201.14 157.964 212.08 152.964C220.18 149.304 227.71 151.724 234.1 156.474C240.34 161.064 243.28 167.874 241.94 175.664C240.39 184.474 236.68 192.684 233.12 200.884C229.92 208.154 225.95 215.014 221.62 221.774C212.13 236.414 200.63 249.314 186.6 260.244C177.47 267.264 167.82 273.554 157.41 278.554C149.77 282.274 142.14 285.934 133.58 287.274C126.92 288.304 120.37 287.114 114.65 284.434C98.5598 276.904 84.5298 266.484 71.2198 255.084C59.4098 244.984 48.9398 233.834 39.9098 221.564C30.4198 208.564 22.7898 194.484 16.5998 179.574C11.2898 166.784 6.89984 153.844 5.19984 140.174C3.13984 123.874 17.2698 109.694 35.4198 112.684C46.6698 114.434 55.9498 120.674 65.0298 126.664C73.1298 131.974 80.7598 138.064 88.0898 144.354C97.2698 152.194 105.62 160.704 113.31 169.834C123.47 181.904 131.51 195.414 138.74 209.284C140.95 213.464 142.04 218.154 144.82 222.284C149.15 212.954 154.41 204.544 160.45 196.494C167 187.834 174.27 179.944 182.52 172.824ZM144.31 227.904C140.33 217.694 135.54 207.744 130.12 198.094C123.73 186.644 116.09 176.024 107.43 166.164C99.9998 157.764 91.6998 150.074 82.9798 142.854C72.4098 134.084 61.3698 125.934 49.0398 119.754C44.2398 117.324 39.3998 114.434 33.6198 113.974C20.1098 112.784 5.09984 124.494 7.25984 140.124C10.4098 162.554 19.3298 183.034 30.4198 202.784C38.1598 216.614 47.9098 229.044 58.9998 240.644C73.6998 255.754 89.9898 268.914 108.72 279.124C115.11 282.634 121.71 286.554 128.99 285.414C141.57 286.244 150.7 276.804 151.94 266.954C153.8 253.024 149.15 240.384 144.31 227.904ZM218.47 218.524C214.92 212.074 211 205.984 205.12 200.934C195.83 192.994 185.1 189.124 173.03 187.724C171.69 187.574 170.35 187.474 169.37 188.764C167.41 191.234 165.4 193.714 163.23 196.494C186.5 199.074 202.95 210.114 212.39 230.434C215.43 228.734 215.69 225.384 217.91 223.474C219.82 221.874 219.45 220.324 218.47 218.524ZM223.68 212.694C226.47 212.894 225.59 209.394 226.93 207.844C228.17 206.244 229.98 204.694 228.48 202.064C220.54 187.624 208.67 178.134 191.86 174.524C184.95 173.084 180.93 174.734 177.57 181.234C195.99 184.424 210.27 193.094 220.59 207.684C221.78 209.344 221.78 212.534 223.68 212.694ZM235.08 181.434C229 172.724 221.05 166.274 210.58 162.714C202.69 160.034 198.46 161.014 192.74 168.234C210.22 171.794 223.32 181.124 232.45 196.134C234.21 192.994 235.8 190.054 236.53 186.644C236.89 184.634 236.17 182.984 235.08 181.434Z" fill="#040404"/>
<path d="M333.65 258.854C327.35 280.624 301.72 293.054 280.21 285.314C262.01 278.814 252.05 264.214 252.57 245.704C253.19 225.694 254.94 205.724 258.29 185.924C258.7 183.134 259.07 180.304 258.91 177.514C258.65 174.064 260.46 173.854 263.14 174.374C270.67 175.764 275.11 182.264 273.61 190.054C272.84 194.174 272.11 198.194 271.86 202.424C271.6 206.404 271.14 210.424 270.72 215.014C281.04 210.524 290.68 207.324 301.62 209.494C325.91 214.234 339.84 237.144 333.65 258.854ZM294.04 223.884C280.26 224.034 268.45 235.074 268.45 248.074C268.4 260.714 279.9 273.144 293.93 272.164C307.34 273.244 319.41 261.274 319.46 248.174C319.46 234.614 306.93 223.734 294.04 223.884Z" fill="#E5E5E5"/>
<path d="M334.099 258.694C327.799 280.464 302.169 292.894 280.659 285.154C262.459 278.654 252.499 264.054 253.019 245.544C253.639 225.534 255.389 205.564 258.739 185.764C259.149 182.974 259.519 180.144 259.359 177.354C259.099 173.904 260.909 173.694 263.589 174.214C271.119 175.604 275.559 182.104 274.059 189.894C273.289 194.014 272.559 198.034 272.309 202.264C272.049 206.244 271.589 210.264 271.169 214.854C281.489 210.364 291.129 207.164 302.069 209.334C326.359 214.074 340.289 236.984 334.099 258.694ZM294.489 223.724C280.709 223.874 268.899 234.914 268.899 247.914C268.849 260.554 280.349 272.984 294.379 272.004C307.789 273.084 319.859 261.114 319.909 248.014C319.909 234.454 307.379 223.574 294.489 223.724Z" fill="white"/>
<path d="M393.17 214.854C402.5 219.394 402.4 231.934 397.4 236.884C388.47 245.544 379.55 254.214 370.78 263.084C368.87 264.994 365.42 266.794 366.61 270.144C367.89 273.704 371.66 272.574 374.45 272.574C385.33 272.674 392.5 267.314 396.83 257.774C398.38 254.414 399.36 250.494 404.36 250.244C409.88 249.984 413.44 254.104 412.2 259.424C408.59 275.614 390.54 288.564 374.6 287.584C345.1 287.584 326.63 258.184 338.96 232.444C348.6 212.384 371.76 204.444 393.17 214.854ZM357.42 255.704C365.21 247.914 372.95 240.024 380.74 232.184C381.92 230.954 383.73 229.974 382.7 227.804C381.82 225.944 380.12 225.484 378.31 225.224C363.77 223.314 350.31 234.204 350.41 250.184C350.51 250.754 350.62 252.354 351.03 253.904C351.96 257.104 355.16 258.024 357.42 255.704Z" fill="#E5E5E5"/>
<path d="M393.17 214.854C402.5 219.394 402.4 231.934 397.4 236.884C388.47 245.544 379.55 254.214 370.78 263.084C368.87 264.994 365.42 266.794 366.61 270.144C367.89 273.704 371.66 272.574 374.45 272.574C385.33 272.674 392.5 267.314 396.83 257.774C398.38 254.414 399.36 250.494 404.36 250.244C409.88 249.984 413.44 254.104 412.2 259.424C408.59 275.614 390.54 288.564 374.6 287.584C345.1 287.584 326.63 258.184 338.96 232.444C348.6 212.384 371.76 204.444 393.17 214.854ZM357.42 255.704C365.21 247.914 372.95 240.024 380.74 232.184C381.92 230.954 383.73 229.974 382.7 227.804C381.82 225.944 380.12 225.484 378.31 225.224C363.77 223.314 350.31 234.204 350.41 250.184C350.51 250.754 350.62 252.354 351.03 253.904C351.96 257.104 355.16 258.024 357.42 255.704Z" fill="white"/>
<path d="M470.53 213.154C474.82 215.014 479.15 216.614 481.26 220.994C484.46 227.654 483.27 233.474 477.81 238.844C469.14 247.244 460.53 255.704 451.91 264.164C450.21 265.864 447.69 267.364 448.92 270.354C450.11 273.244 452.89 272.314 455.11 272.524C467.34 273.764 476.21 266.024 480.33 255.394C482.09 250.914 485.23 249.364 489.98 250.654C493.59 251.684 495.81 255.554 494.72 259.374C490.29 274.794 475.59 286.864 458.77 287.584C443.97 288.254 432.57 282.014 424.06 270.974C419.27 264.834 416.95 257.354 417.77 249.464C416.74 238.064 421.33 228.524 429.27 221.154C439.07 212.074 455.42 206.604 470.53 213.154ZM432.93 253.644C433.19 254.884 433.04 256.434 434.69 256.794C436.34 257.204 437.83 257.044 439.18 255.704C447.12 247.864 455.11 240.084 463 232.244C464.09 231.154 465.74 230.124 464.91 228.214C464.09 226.204 462.28 225.534 460.27 225.434C459.03 225.324 457.64 225.384 456.66 225.384C449.65 224.604 444.33 227.954 439.85 231.774C433.24 237.394 431.64 245.184 432.93 253.644Z" fill="#E5E5E5"/>
<path d="M470.53 213.154C474.82 215.014 479.15 216.614 481.26 220.994C484.46 227.654 483.27 233.474 477.81 238.844C469.14 247.244 460.53 255.704 451.91 264.164C450.21 265.864 447.69 267.364 448.92 270.354C450.11 273.244 452.89 272.314 455.11 272.524C467.34 273.764 476.21 266.024 480.33 255.394C482.09 250.914 485.23 249.364 489.98 250.654C493.59 251.684 495.81 255.554 494.72 259.374C490.29 274.794 475.59 286.864 458.77 287.584C443.97 288.254 432.57 282.014 424.06 270.974C419.27 264.834 416.95 257.354 417.77 249.464C416.74 238.064 421.33 228.524 429.27 221.154C439.07 212.074 455.42 206.604 470.53 213.154ZM432.93 253.644C433.19 254.884 433.04 256.434 434.69 256.794C436.34 257.204 437.83 257.044 439.18 255.704C447.12 247.864 455.11 240.084 463 232.244C464.09 231.154 465.74 230.124 464.91 228.214C464.09 226.204 462.28 225.534 460.27 225.434C459.03 225.324 457.64 225.384 456.66 225.384C449.65 224.604 444.33 227.954 439.85 231.774C433.24 237.394 431.64 245.184 432.93 253.644Z" fill="white"/>
<path d="M206.2 77.4042C205.89 74.5642 207.13 72.9642 210.32 72.5042C227.81 69.9742 244.93 70.2842 261.85 76.1642C281.4 83.0742 296.92 94.4242 308.84 110.624C317.81 122.894 322.56 136.514 324.57 151.104C324.78 152.084 324.83 153.124 324.78 154.104C324.52 156.424 323.33 158.224 320.8 158.634C318.17 159.054 317.09 157.094 316.47 155.134C314.51 149.204 313.22 143.064 310.7 137.284C303.94 121.814 293.37 108.814 279.28 98.9642C266.34 89.9342 251.95 83.3342 235.49 81.8942C230.29 81.4742 225.18 80.8642 219.61 80.8042C217.08 80.9642 214.14 81.1742 211.1 81.2242C208.36 81.2742 206.4 80.2442 206.2 77.4042Z" fill="#E5E5E5"/>
<path d="M206.2 77.4042C205.89 74.5642 207.13 72.9642 210.32 72.5042C227.81 69.9742 244.93 70.2842 261.85 76.1642C281.4 83.0742 296.92 94.4242 308.84 110.624C317.81 122.894 322.56 136.514 324.57 151.104C324.78 152.084 324.83 153.124 324.78 154.104C324.52 156.424 323.33 158.224 320.8 158.634C318.17 159.054 317.09 157.094 316.47 155.134C314.51 149.204 313.22 143.064 310.7 137.284C303.94 121.814 293.37 108.814 279.28 98.9642C266.34 89.9342 251.95 83.3342 235.49 81.8942C230.29 81.4742 225.18 80.8642 219.61 80.8042C217.08 80.9642 214.14 81.1742 211.1 81.2242C208.36 81.2742 206.4 80.2442 206.2 77.4042Z" fill="white"/>
<path d="M206.15 102.624C205.99 99.9942 207.38 98.1342 210.94 97.6242C225.95 95.7642 240.5 96.7942 254.22 103.094C262.62 106.904 269.9 112.424 276.14 119.024C282.84 126.144 287.49 134.394 290.89 143.324C292.75 148.224 293.21 153.434 293.78 158.534C294.04 160.804 293.11 162.924 290.58 163.644C287.69 164.464 285.99 162.714 285.06 160.394C283.98 157.714 283.15 154.924 282.38 152.144C277.07 134.604 265.15 122.224 249.06 113.814C239.98 109.024 229.77 106.234 218.99 106.754C216.62 106.904 214.19 106.954 211.82 107.324C208.06 107.784 206.3 105.464 206.15 102.624Z" fill="#E5E5E5"/>
<path d="M206.15 102.624C205.99 99.9942 207.38 98.1342 210.94 97.6242C225.95 95.7642 240.5 96.7942 254.22 103.094C262.62 106.904 269.9 112.424 276.14 119.024C282.84 126.144 287.49 134.394 290.89 143.324C292.75 148.224 293.21 153.434 293.78 158.534C294.04 160.804 293.11 162.924 290.58 163.644C287.69 164.464 285.99 162.714 285.06 160.394C283.98 157.714 283.15 154.924 282.38 152.144C277.07 134.604 265.15 122.224 249.06 113.814C239.98 109.024 229.77 106.234 218.99 106.754C216.62 106.904 214.19 106.954 211.82 107.324C208.06 107.784 206.3 105.464 206.15 102.624Z" fill="white"/>
<path d="M267.99 162.304C267.99 164.984 268.56 168.074 264.95 168.854C261.23 169.674 260.1 166.844 259.27 164.004C257.05 155.954 253.19 148.944 246.84 143.374C238.95 136.354 230.23 132.184 219.61 132.544C216.2 132.644 212.03 133.524 211.36 128.264C210.89 125.014 214.55 122.794 220.02 122.584C221.78 122.534 223.58 122.584 225.33 122.584C246.12 121.914 265.46 139.714 267.83 160.494C267.89 161.114 267.99 161.684 267.99 162.304Z" fill="#E5E5E5"/>
<path d="M267.99 162.304C267.99 164.984 268.56 168.074 264.95 168.854C261.23 169.674 260.1 166.844 259.27 164.004C257.05 155.954 253.19 148.944 246.84 143.374C238.95 136.354 230.23 132.184 219.61 132.544C216.2 132.644 212.03 133.524 211.36 128.264C210.89 125.014 214.55 122.794 220.02 122.584C221.78 122.534 223.58 122.584 225.33 122.584C246.12 121.914 265.46 139.714 267.83 160.494C267.89 161.114 267.99 161.684 267.99 162.304Z" fill="white"/>
<path d="M61.7798 241.674C50.7398 229.914 41.0498 217.124 33.3598 203.044C22.4298 182.884 13.4998 161.944 10.3598 139.044C8.18983 123.054 23.1498 111.134 36.5598 112.374C42.2798 112.894 47.1298 115.834 51.8798 118.254C64.1498 124.594 75.0898 132.904 85.6098 141.824C94.3798 149.254 102.58 157.094 109.9 165.654C118.52 175.714 126.1 186.544 132.49 198.254C137.86 208.154 142.6 218.264 146.57 228.684C151.42 241.474 155.91 254.364 154.21 268.604C152.97 278.554 143.94 288.304 131.41 287.424C124.19 288.614 117.59 284.594 111.19 280.984C92.6198 270.514 76.3798 257.154 61.7798 241.674Z" fill="#F7DC1D"/>
<path d="M170.56 190.664C171.44 189.484 172.72 189.584 173.91 189.744C185 190.974 194.9 194.794 203.47 202.424C208.88 207.324 212.44 213.204 215.69 219.444C216.62 221.154 216.98 222.644 215.22 224.194C213.21 225.994 213.01 229.244 210.17 230.894C201.45 211.404 186.34 200.724 164.88 198.194C166.9 195.514 168.75 193.144 170.56 190.664Z" fill="#F7DC1D"/>
<path d="M226.26 204.074C227.66 206.914 225.9 208.514 224.66 210.214C223.32 211.914 224.2 215.634 221.41 215.424C219.4 215.274 219.45 211.864 218.32 210.114C208 194.484 193.61 185.304 175.2 181.844C178.55 174.934 182.63 173.084 189.49 174.734C206.4 178.604 218.27 188.654 226.26 204.074Z" fill="#F7DC1D"/>
<path d="M209.5 165.034C220.59 168.234 229 173.954 235.44 181.694C236.63 183.134 237.4 184.534 236.94 186.334C236.27 189.374 234.57 192.064 232.71 194.794C223.12 181.434 209.24 173.134 190.67 169.984C196.76 163.534 201.25 162.664 209.5 165.034Z" fill="#F7DC1D"/>
</svg>
