<?xml version="1.0" encoding="UTF-8" standalone="no"?>
<!DOCTYPE svg PUBLIC "-//W3C//DTD SVG 1.1//EN" "http://www.w3.org/Graphics/SVG/1.1/DTD/svg11.dtd">
<svg version="1.1" xmlns="http://www.w3.org/2000/svg" xmlns:xlink="http://www.w3.org/1999/xlink" preserveAspectRatio="xMidYMid meet" viewBox="4.000003377128163 69.99998959168623 829.59931480469 220.6421011808476" width="825.6" height="216.64"><defs><path d="M534.33 213.23C536.91 206.73 540.35 201.33 544.65 197.03C549.05 192.64 554.11 189.34 559.85 187.14C565.68 184.94 571.84 183.84 578.34 183.84C584.75 183.84 590.77 184.94 596.41 187.14C602.14 189.34 607.16 192.64 611.46 197.03C615.76 201.33 619.16 206.73 621.64 213.23C624.22 219.73 625.51 227.24 625.51 235.74C625.51 244.25 624.22 251.75 621.64 258.25C619.16 264.75 615.76 270.2 611.46 274.6C607.16 278.9 602.14 282.15 596.41 284.34C590.77 286.54 584.75 287.64 578.34 287.64C571.84 287.64 565.68 286.54 559.85 284.34C554.11 282.15 549.05 278.9 544.65 274.6C540.35 270.2 536.91 264.75 534.33 258.25C531.84 251.75 530.6 244.25 530.6 235.74C530.6 227.24 531.84 219.73 534.33 213.23ZM547.52 252.23C549.05 257.1 551.2 261.26 553.97 264.7C556.84 268.14 560.28 270.82 564.29 272.73C568.4 274.55 572.99 275.46 578.06 275.46C583.12 275.46 587.66 274.55 591.68 272.73C595.69 270.82 599.08 268.14 601.86 264.7C604.72 261.26 606.92 257.1 608.45 252.23C609.98 247.26 610.75 241.76 610.75 235.74C610.75 229.72 609.98 224.27 608.45 219.4C606.92 214.43 604.72 210.22 601.86 206.78C599.08 203.34 595.69 200.71 591.68 198.9C587.66 196.98 583.12 196.03 578.06 196.03C572.99 196.03 568.4 196.98 564.29 198.9C560.28 200.71 556.84 203.34 553.97 206.78C551.2 210.22 549.05 214.43 547.52 219.4C545.99 224.27 545.22 229.72 545.22 235.74C545.22 241.76 545.99 247.26 547.52 252.23ZM686.92 262.98C685.4 259.45 683.72 255.62 681.91 251.51C680.09 247.4 678.13 243.2 676.03 238.9C674.02 234.5 672.11 230.39 670.29 226.57C668.48 222.65 666.76 219.16 665.13 216.1C663.6 213.04 662.36 210.7 661.4 209.08C660.35 220.35 659.49 232.59 658.82 245.78C658.15 258.87 657.58 272.11 657.1 285.49C655.74 285.49 644.84 285.49 643.48 285.49C643.86 276.89 644.29 268.24 644.77 259.54C645.25 250.75 645.78 242.15 646.35 233.73C647.02 225.23 647.69 216.96 648.36 208.93C649.12 200.9 649.93 193.3 650.79 186.14C652.01 186.14 661.76 186.14 662.98 186.14C665.56 190.34 668.33 195.31 671.3 201.05C674.26 206.78 677.22 212.8 680.19 219.11C683.15 225.32 686.02 231.58 688.79 237.89C691.56 244.11 694.09 249.79 696.39 254.95C698.68 249.79 701.21 244.11 703.99 237.89C706.76 231.58 709.63 225.32 712.59 219.11C715.55 212.8 718.51 206.78 721.48 201.05C724.44 195.31 727.21 190.34 729.79 186.14C731.01 186.14 740.76 186.14 741.98 186.14C745.23 218.16 747.67 251.27 749.29 285.49C747.93 285.49 737.03 285.49 735.67 285.49C735.19 272.11 734.62 258.87 733.95 245.78C733.28 232.59 732.42 220.35 731.37 209.08C730.42 210.7 729.12 213.04 727.5 216.1C725.97 219.16 724.3 222.65 722.48 226.57C720.67 230.39 718.71 234.5 716.6 238.9C714.6 243.2 712.68 247.4 710.87 251.51C709.05 255.62 707.33 259.45 705.71 262.98C704.18 266.52 702.93 269.43 701.98 271.73C701.23 271.73 697.51 271.73 690.8 271.73C689.3 268.25 688.01 265.34 686.92 262.98ZM815.98 260.69C815.98 257.63 815.31 255.05 813.97 252.95C812.73 250.75 811.01 248.88 808.81 247.36C806.61 245.73 804.07 244.34 801.21 243.2C798.44 242.05 795.47 240.9 792.32 239.76C788.69 238.51 785.25 237.13 782 235.6C778.75 233.97 775.93 232.11 773.54 230.01C771.15 227.81 769.23 225.23 767.8 222.27C766.46 219.3 765.79 215.72 765.79 211.51C765.79 202.82 768.76 196.03 774.68 191.15C780.61 186.28 788.78 183.84 799.2 183.84C805.22 183.84 810.67 184.51 815.54 185.85C820.52 187.09 824.15 188.48 826.44 190.01C826 191.14 822.44 200.2 822 201.33C819.99 200.09 816.98 198.9 812.96 197.75C809.05 196.51 804.46 195.89 799.2 195.89C796.52 195.89 794.04 196.17 791.74 196.75C789.45 197.32 787.44 198.18 785.72 199.33C784 200.47 782.62 201.95 781.56 203.77C780.61 205.49 780.13 207.55 780.13 209.94C780.13 212.61 780.66 214.86 781.71 216.67C782.76 218.49 784.24 220.11 786.15 221.55C788.07 222.89 790.26 224.13 792.75 225.28C795.33 226.42 798.15 227.57 801.21 228.72C805.51 230.44 809.43 232.16 812.96 233.88C816.6 235.6 819.7 237.65 822.28 240.04C824.96 242.43 827.01 245.3 828.45 248.65C829.88 251.89 830.6 255.86 830.6 260.55C830.6 269.24 827.4 275.93 820.99 280.62C814.68 285.3 805.75 287.64 794.18 287.64C790.26 287.64 786.63 287.36 783.29 286.78C780.04 286.3 777.12 285.73 774.54 285.06C771.96 284.3 769.71 283.53 767.8 282.77C765.99 281.91 764.55 281.19 763.5 280.62C763.92 279.47 767.24 270.29 767.66 269.15C769.86 270.39 773.2 271.78 777.69 273.31C782.19 274.83 787.68 275.6 794.18 275.6C808.71 275.6 815.98 270.63 815.98 260.69Z" id="haq9aZO2Z"></path><path d="M212.08 152.96C220.18 149.3 227.71 151.72 234.1 156.47C240.34 161.06 243.28 167.87 241.94 175.66C240.39 184.47 236.68 192.68 233.12 200.88C229.92 208.15 225.95 215.01 221.62 221.77C212.13 236.41 200.63 249.31 186.6 260.24C177.47 267.26 167.82 273.55 157.41 278.55C149.77 282.27 142.14 285.93 133.58 287.27C126.92 288.3 120.37 287.11 114.65 284.43C98.56 276.9 84.53 266.48 71.22 255.08C59.41 244.98 48.94 233.83 39.91 221.56C30.42 208.56 22.79 194.48 16.6 179.57C11.29 166.78 6.9 153.84 5.2 140.17C3.14 123.87 17.27 109.69 35.42 112.68C46.67 114.43 55.95 120.67 65.03 126.66C73.13 131.97 80.76 138.06 88.09 144.35C97.27 152.19 105.62 160.7 113.31 169.83C123.47 181.9 131.51 195.41 138.74 209.28C140.95 213.46 142.04 218.15 144.82 222.28C149.15 212.95 154.41 204.54 160.45 196.49C167 187.83 174.27 179.94 182.52 172.82C191.5 165.03 201.14 157.96 212.08 152.96ZM130.12 198.09C123.73 186.64 116.09 176.02 107.43 166.16C100 157.76 91.7 150.07 82.98 142.85C72.41 134.08 61.37 125.93 49.04 119.75C44.24 117.32 39.4 114.43 33.62 113.97C20.11 112.78 5.1 124.49 7.26 140.12C10.41 162.55 19.33 183.03 30.42 202.78C38.16 216.61 47.91 229.04 59 240.64C73.7 255.75 89.99 268.91 108.72 279.12C115.11 282.63 121.71 286.55 128.99 285.41C141.57 286.24 150.7 276.8 151.94 266.95C153.8 253.02 149.15 240.38 144.31 227.9C140.33 217.69 135.54 207.74 130.12 198.09ZM205.12 200.93C195.83 192.99 185.1 189.12 173.03 187.72C171.69 187.57 170.35 187.47 169.37 188.76C167.41 191.23 165.4 193.71 163.23 196.49C186.5 199.07 202.95 210.11 212.39 230.43C215.43 228.73 215.69 225.38 217.91 223.47C219.82 221.87 219.45 220.32 218.47 218.52C214.92 212.07 211 205.98 205.12 200.93ZM226.93 207.84C228.17 206.24 229.98 204.69 228.48 202.06C220.54 187.62 208.67 178.13 191.86 174.52C184.95 173.08 180.93 174.73 177.57 181.23C195.99 184.42 210.27 193.09 220.59 207.68C221.78 209.34 221.78 212.53 223.68 212.69C226.47 212.89 225.59 209.39 226.93 207.84ZM210.58 162.71C202.69 160.03 198.46 161.01 192.74 168.23C210.22 171.79 223.32 181.12 232.45 196.13C234.21 192.99 235.8 190.05 236.53 186.64C236.89 184.63 236.17 182.98 235.08 181.43C229 172.72 221.05 166.27 210.58 162.71Z" id="b3WWdYJny"></path><path d="M280.21 285.31C262.01 278.81 252.05 264.21 252.57 245.7C253.19 225.69 254.94 205.72 258.29 185.92C258.7 183.13 259.07 180.3 258.91 177.51C258.65 174.06 260.46 173.85 263.14 174.37C270.67 175.76 275.11 182.26 273.61 190.05C272.84 194.17 272.11 198.19 271.86 202.42C271.6 206.4 271.14 210.42 270.72 215.01C281.04 210.52 290.68 207.32 301.62 209.49C325.91 214.23 339.84 237.14 333.65 258.85C327.35 280.62 301.72 293.05 280.21 285.31ZM268.45 248.07C268.4 260.71 279.9 273.14 293.93 272.16C307.34 273.24 319.41 261.27 319.46 248.17C319.46 234.61 306.93 223.73 294.04 223.88C280.26 224.03 268.45 235.07 268.45 248.07Z" id="c1ll5IoN1q"></path><path d="M280.66 285.15C262.46 278.65 252.5 264.05 253.02 245.54C253.64 225.53 255.39 205.56 258.74 185.76C259.15 182.97 259.52 180.14 259.36 177.35C259.1 173.9 260.91 173.69 263.59 174.21C271.12 175.6 275.56 182.1 274.06 189.89C273.29 194.01 272.56 198.03 272.31 202.26C272.05 206.24 271.59 210.26 271.17 214.85C281.49 210.36 291.13 207.16 302.07 209.33C326.36 214.07 340.29 236.98 334.1 258.69C327.8 280.46 302.17 292.89 280.66 285.15ZM268.9 247.91C268.85 260.55 280.35 272.98 294.38 272C307.79 273.08 319.86 261.11 319.91 248.01C319.91 234.45 307.38 223.57 294.49 223.72C280.71 223.87 268.9 234.91 268.9 247.91Z" id="f1Q8qobjlY"></path><path d="M397.4 236.88C388.47 245.54 379.55 254.21 370.78 263.08C368.87 264.99 365.42 266.79 366.61 270.14C367.89 273.7 371.66 272.57 374.45 272.57C385.33 272.67 392.5 267.31 396.83 257.77C398.38 254.41 399.36 250.49 404.36 250.24C409.88 249.98 413.44 254.1 412.2 259.42C408.59 275.61 390.54 288.56 374.6 287.58C345.1 287.58 326.63 258.18 338.96 232.44C348.6 212.38 371.76 204.44 393.17 214.85C402.5 219.39 402.4 231.93 397.4 236.88ZM380.74 232.18C381.92 230.95 383.73 229.97 382.7 227.8C381.82 225.94 380.12 225.48 378.31 225.22C363.77 223.31 350.31 234.2 350.41 250.18C350.51 250.75 350.62 252.35 351.03 253.9C351.96 257.1 355.16 258.02 357.42 255.7C365.21 247.91 372.95 240.02 380.74 232.18Z" id="a25MdG2Mla"></path><path d="M397.4 236.88C388.47 245.54 379.55 254.21 370.78 263.08C368.87 264.99 365.42 266.79 366.61 270.14C367.89 273.7 371.66 272.57 374.45 272.57C385.33 272.67 392.5 267.31 396.83 257.77C398.38 254.41 399.36 250.49 404.36 250.24C409.88 249.98 413.44 254.1 412.2 259.42C408.59 275.61 390.54 288.56 374.6 287.58C345.1 287.58 326.63 258.18 338.96 232.44C348.6 212.38 371.76 204.44 393.17 214.85C402.5 219.39 402.4 231.93 397.4 236.88ZM380.74 232.18C381.92 230.95 383.73 229.97 382.7 227.8C381.82 225.94 380.12 225.48 378.31 225.22C363.77 223.31 350.31 234.2 350.41 250.18C350.51 250.75 350.62 252.35 351.03 253.9C351.96 257.1 355.16 258.02 357.42 255.7C365.21 247.91 372.95 240.02 380.74 232.18Z" id="abxLS3fXU"></path><path d="M481.26 220.99C484.46 227.65 483.27 233.47 477.81 238.84C469.14 247.24 460.53 255.7 451.91 264.16C450.21 265.86 447.69 267.36 448.92 270.35C450.11 273.24 452.89 272.31 455.11 272.52C467.34 273.76 476.21 266.02 480.33 255.39C482.09 250.91 485.23 249.36 489.98 250.65C493.59 251.68 495.81 255.55 494.72 259.37C490.29 274.79 475.59 286.86 458.77 287.58C443.97 288.25 432.57 282.01 424.06 270.97C419.27 264.83 416.95 257.35 417.77 249.46C416.74 238.06 421.33 228.52 429.27 221.15C439.07 212.07 455.42 206.6 470.53 213.15C474.82 215.01 479.15 216.61 481.26 220.99ZM434.69 256.79C436.34 257.2 437.83 257.04 439.18 255.7C447.12 247.86 455.11 240.08 463 232.24C464.09 231.15 465.74 230.12 464.91 228.21C464.09 226.2 462.28 225.53 460.27 225.43C459.03 225.32 457.64 225.38 456.66 225.38C449.65 224.6 444.33 227.95 439.85 231.77C433.24 237.39 431.64 245.18 432.93 253.64C433.19 254.88 433.04 256.43 434.69 256.79Z" id="b5g0BH8uQs"></path><path d="M481.26 220.99C484.46 227.65 483.27 233.47 477.81 238.84C469.14 247.24 460.53 255.7 451.91 264.16C450.21 265.86 447.69 267.36 448.92 270.35C450.11 273.24 452.89 272.31 455.11 272.52C467.34 273.76 476.21 266.02 480.33 255.39C482.09 250.91 485.23 249.36 489.98 250.65C493.59 251.68 495.81 255.55 494.72 259.37C490.29 274.79 475.59 286.86 458.77 287.58C443.97 288.25 432.57 282.01 424.06 270.97C419.27 264.83 416.95 257.35 417.77 249.46C416.74 238.06 421.33 228.52 429.27 221.15C439.07 212.07 455.42 206.6 470.53 213.15C474.82 215.01 479.15 216.61 481.26 220.99ZM434.69 256.79C436.34 257.2 437.83 257.04 439.18 255.7C447.12 247.86 455.11 240.08 463 232.24C464.09 231.15 465.74 230.12 464.91 228.21C464.09 226.2 462.28 225.53 460.27 225.43C459.03 225.32 457.64 225.38 456.66 225.38C449.65 224.6 444.33 227.95 439.85 231.77C433.24 237.39 431.64 245.18 432.93 253.64C433.19 254.88 433.04 256.43 434.69 256.79Z" id="b2PrWtCFSV"></path><path d="M210.32 72.5C227.81 69.97 244.93 70.28 261.85 76.16C281.4 83.07 296.92 94.42 308.84 110.62C317.81 122.89 322.56 136.51 324.57 151.1C324.78 152.08 324.83 153.12 324.78 154.1C324.52 156.42 323.33 158.22 320.8 158.63C318.17 159.05 317.09 157.09 316.47 155.13C314.51 149.2 313.22 143.06 310.7 137.28C303.94 121.81 293.37 108.81 279.28 98.96C266.34 89.93 251.95 83.33 235.49 81.89C230.29 81.47 225.18 80.86 219.61 80.8C217.08 80.96 214.14 81.17 211.1 81.22C208.36 81.27 206.4 80.24 206.2 77.4C205.89 74.56 207.13 72.96 210.32 72.5Z" id="c2s0Il0w7T"></path><path d="M210.32 72.5C227.81 69.97 244.93 70.28 261.85 76.16C281.4 83.07 296.92 94.42 308.84 110.62C317.81 122.89 322.56 136.51 324.57 151.1C324.78 152.08 324.83 153.12 324.78 154.1C324.52 156.42 323.33 158.22 320.8 158.63C318.17 159.05 317.09 157.09 316.47 155.13C314.51 149.2 313.22 143.06 310.7 137.28C303.94 121.81 293.37 108.81 279.28 98.96C266.34 89.93 251.95 83.33 235.49 81.89C230.29 81.47 225.18 80.86 219.61 80.8C217.08 80.96 214.14 81.17 211.1 81.22C208.36 81.27 206.4 80.24 206.2 77.4C205.89 74.56 207.13 72.96 210.32 72.5Z" id="b10c1KuRye"></path><path d="M210.94 97.62C225.95 95.76 240.5 96.79 254.22 103.09C262.62 106.9 269.9 112.42 276.14 119.02C282.84 126.14 287.49 134.39 290.89 143.32C292.75 148.22 293.21 153.43 293.78 158.53C294.04 160.8 293.11 162.92 290.58 163.64C287.69 164.46 285.99 162.71 285.06 160.39C283.98 157.71 283.15 154.92 282.38 152.14C277.07 134.6 265.15 122.22 249.06 113.81C239.98 109.02 229.77 106.23 218.99 106.75C216.62 106.9 214.19 106.95 211.82 107.32C208.06 107.78 206.3 105.46 206.15 102.62C205.99 99.99 207.38 98.13 210.94 97.62Z" id="f12JIDEFS"></path><path d="M210.94 97.62C225.95 95.76 240.5 96.79 254.22 103.09C262.62 106.9 269.9 112.42 276.14 119.02C282.84 126.14 287.49 134.39 290.89 143.32C292.75 148.22 293.21 153.43 293.78 158.53C294.04 160.8 293.11 162.92 290.58 163.64C287.69 164.46 285.99 162.71 285.06 160.39C283.98 157.71 283.15 154.92 282.38 152.14C277.07 134.6 265.15 122.22 249.06 113.81C239.98 109.02 229.77 106.23 218.99 106.75C216.62 106.9 214.19 106.95 211.82 107.32C208.06 107.78 206.3 105.46 206.15 102.62C205.99 99.99 207.38 98.13 210.94 97.62Z" id="aFTgafIeI"></path><path d="M264.95 168.85C261.23 169.67 260.1 166.84 259.27 164C257.05 155.95 253.19 148.94 246.84 143.37C238.95 136.35 230.23 132.18 219.61 132.54C216.2 132.64 212.03 133.52 211.36 128.26C210.89 125.01 214.55 122.79 220.02 122.58C221.78 122.53 223.58 122.58 225.33 122.58C246.12 121.91 265.46 139.71 267.83 160.49C267.89 161.11 267.99 161.68 267.99 162.3C267.99 164.98 268.56 168.07 264.95 168.85Z" id="agQhH33nR"></path><path d="M264.95 168.85C261.23 169.67 260.1 166.84 259.27 164C257.05 155.95 253.19 148.94 246.84 143.37C238.95 136.35 230.23 132.18 219.61 132.54C216.2 132.64 212.03 133.52 211.36 128.26C210.89 125.01 214.55 122.79 220.02 122.58C221.78 122.53 223.58 122.58 225.33 122.58C246.12 121.91 265.46 139.71 267.83 160.49C267.89 161.11 267.99 161.68 267.99 162.3C267.99 164.98 268.56 168.07 264.95 168.85Z" id="etxLXcAS0"></path><path d="M33.36 203.04C22.43 182.88 13.5 161.94 10.36 139.04C8.19 123.05 23.15 111.13 36.56 112.37C42.28 112.89 47.13 115.83 51.88 118.25C64.15 124.59 75.09 132.9 85.61 141.82C94.38 149.25 102.58 157.09 109.9 165.65C118.52 175.71 126.1 186.54 132.49 198.25C137.86 208.15 142.6 218.26 146.57 228.68C151.42 241.47 155.91 254.36 154.21 268.6C152.97 278.55 143.94 288.3 131.41 287.42C124.19 288.61 117.59 284.59 111.19 280.98C92.62 270.51 76.38 257.15 61.78 241.67C50.74 229.91 41.05 217.12 33.36 203.04Z" id="a4baXzd1bG"></path><path d="M173.91 189.74C185 190.97 194.9 194.79 203.47 202.42C208.88 207.32 212.44 213.2 215.69 219.44C216.62 221.15 216.98 222.64 215.22 224.19C213.21 225.99 213.01 229.24 210.17 230.89C201.45 211.4 186.34 200.72 164.88 198.19C166.9 195.51 168.75 193.14 170.56 190.66C171.44 189.48 172.72 189.58 173.91 189.74Z" id="bqTT8QFxS"></path><path d="M224.66 210.21C223.32 211.91 224.2 215.63 221.41 215.42C219.4 215.27 219.45 211.86 218.32 210.11C208 194.48 193.61 185.3 175.2 181.84C178.55 174.93 182.63 173.08 189.49 174.73C206.4 178.6 218.27 188.65 226.26 204.07C227.66 206.91 225.9 208.51 224.66 210.21Z" id="a1kQGrDhlE"></path><path d="M235.44 181.69C236.63 183.13 237.4 184.53 236.94 186.33C236.27 189.37 234.57 192.06 232.71 194.79C223.12 181.43 209.24 173.13 190.67 169.98C196.76 163.53 201.25 162.66 209.5 165.03C220.59 168.23 229 173.95 235.44 181.69Z" id="b1psoWhoKQ"></path></defs><g><g><use xlink:href="#haq9aZO2Z" opacity="1" fill="#000000" fill-opacity="1"></use><g><use xlink:href="#haq9aZO2Z" opacity="1" fill-opacity="0" stroke="#000000" stroke-width="1" stroke-opacity="0"></use></g></g><g><use xlink:href="#b3WWdYJny" opacity="1" fill="#040404" fill-opacity="1"></use><g><use xlink:href="#b3WWdYJny" opacity="1" fill-opacity="0" stroke="#000000" stroke-width="1" stroke-opacity="0"></use></g></g><g><use xlink:href="#c1ll5IoN1q" opacity="1" fill="#e5e5e5" fill-opacity="1"></use><g><use xlink:href="#c1ll5IoN1q" opacity="1" fill-opacity="0" stroke="#000000" stroke-width="1" stroke-opacity="0"></use></g></g><g><use xlink:href="#f1Q8qobjlY" opacity="1" fill="#000000" fill-opacity="1"></use><g><use xlink:href="#f1Q8qobjlY" opacity="1" fill-opacity="0" stroke="#000000" stroke-width="1" stroke-opacity="0"></use></g></g><g><use xlink:href="#a25MdG2Mla" opacity="1" fill="#e5e5e5" fill-opacity="1"></use><g><use xlink:href="#a25MdG2Mla" opacity="1" fill-opacity="0" stroke="#000000" stroke-width="1" stroke-opacity="0"></use></g></g><g><use xlink:href="#abxLS3fXU" opacity="1" fill="#000000" fill-opacity="1"></use><g><use xlink:href="#abxLS3fXU" opacity="1" fill-opacity="0" stroke="#000000" stroke-width="1" stroke-opacity="0"></use></g></g><g><use xlink:href="#b5g0BH8uQs" opacity="1" fill="#e5e5e5" fill-opacity="1"></use><g><use xlink:href="#b5g0BH8uQs" opacity="1" fill-opacity="0" stroke="#000000" stroke-width="1" stroke-opacity="0"></use></g></g><g><use xlink:href="#b2PrWtCFSV" opacity="1" fill="#000000" fill-opacity="1"></use><g><use xlink:href="#b2PrWtCFSV" opacity="1" fill-opacity="0" stroke="#000000" stroke-width="1" stroke-opacity="0"></use></g></g><g><use xlink:href="#c2s0Il0w7T" opacity="1" fill="#e5e5e5" fill-opacity="1"></use><g><use xlink:href="#c2s0Il0w7T" opacity="1" fill-opacity="0" stroke="#000000" stroke-width="1" stroke-opacity="0"></use></g></g><g><use xlink:href="#b10c1KuRye" opacity="1" fill="#000000" fill-opacity="1"></use><g><use xlink:href="#b10c1KuRye" opacity="1" fill-opacity="0" stroke="#000000" stroke-width="1" stroke-opacity="0"></use></g></g><g><use xlink:href="#f12JIDEFS" opacity="1" fill="#e5e5e5" fill-opacity="1"></use><g><use xlink:href="#f12JIDEFS" opacity="1" fill-opacity="0" stroke="#000000" stroke-width="1" stroke-opacity="0"></use></g></g><g><use xlink:href="#aFTgafIeI" opacity="1" fill="#000000" fill-opacity="1"></use><g><use xlink:href="#aFTgafIeI" opacity="1" fill-opacity="0" stroke="#000000" stroke-width="1" stroke-opacity="0"></use></g></g><g><use xlink:href="#agQhH33nR" opacity="1" fill="#e5e5e5" fill-opacity="1"></use><g><use xlink:href="#agQhH33nR" opacity="1" fill-opacity="0" stroke="#000000" stroke-width="1" stroke-opacity="0"></use></g></g><g><use xlink:href="#etxLXcAS0" opacity="1" fill="#000000" fill-opacity="1"></use><g><use xlink:href="#etxLXcAS0" opacity="1" fill-opacity="0" stroke="#000000" stroke-width="1" stroke-opacity="0"></use></g></g><g><use xlink:href="#a4baXzd1bG" opacity="1" fill="#f7dc1d" fill-opacity="1"></use><g><use xlink:href="#a4baXzd1bG" opacity="1" fill-opacity="0" stroke="#000000" stroke-width="1" stroke-opacity="0"></use></g></g><g><use xlink:href="#bqTT8QFxS" opacity="1" fill="#f7dc1d" fill-opacity="1"></use><g><use xlink:href="#bqTT8QFxS" opacity="1" fill-opacity="0" stroke="#000000" stroke-width="1" stroke-opacity="0"></use></g></g><g><use xlink:href="#a1kQGrDhlE" opacity="1" fill="#f7dc1d" fill-opacity="1"></use><g><use xlink:href="#a1kQGrDhlE" opacity="1" fill-opacity="0" stroke="#000000" stroke-width="1" stroke-opacity="0"></use></g></g><g><use xlink:href="#b1psoWhoKQ" opacity="1" fill="#f7dc1d" fill-opacity="1"></use><g><use xlink:href="#b1psoWhoKQ" opacity="1" fill-opacity="0" stroke="#000000" stroke-width="1" stroke-opacity="0"></use></g></g></g></svg>